# xmcd
#
# Track frame offsets: 
#        150
#        18748
#        33300
#        48942
#        62998
#        81709
#        96099
#        116125
#        127569
#        145437
#        159712
#        184958
#
# Disc length: 2713 seconds
#
# Revision: 1
# Processed by: cddbd v1.5.2PL0 Copyright (c) Steve Scherf et al.
# Submitted via: ExactAudioCopy v1.0b1
#
DISCID=ac0a970c
DTITLE=Ash Grunwald - Fish Out Of Water
DYEAR=2008
DGENRE=Blues
TTITLE0=Can U Find A Way
TTITLE1=Mojo
TTITLE2=Fish out of Water
TTITLE3=Give SOmething Away
TTITLE4=The Devil Called Me a Liar
TTITLE5=Joke on Me
TTITLE6=Breakout
TTITLE7=Working Hard
TTITLE8=The Bottle
TTITLE9=Get What You Want
TTITLE10=Port Campbell
TTITLE11=Shake
EXTD=
EXTT0=
EXTT1=
EXTT2=
EXTT3=
EXTT4=
EXTT5=
EXTT6=
EXTT7=
EXTT8=
EXTT9=
EXTT10=
EXTT11=
PLAYORDER=
